<svg width="980" height="223" viewBox="0 0 980 223" fill="none" xmlns="http://www.w3.org/2000/svg">
<rect width="980" height="223" rx="15" fill="#E35B2F"/>
<path d="M133.592 94.3398C134.726 95.2783 136.164 96.6145 137.25 97.6167L137.714 98.078C137.075 97.1554 138.289 95.1351 139.695 92.9717C144.727 85.5111 156.917 72.9759 166.917 64.9585C175.992 57.7365 177.398 58.5637 177.877 58.8501L176.87 57.8479C174.634 55.7004 171.519 52.9802 169.17 50.944C168.723 50.5781 165.687 53.3938 160.511 59.1364C152.044 68.5377 141.1 82.2023 136.052 89.663C134.087 92.5581 133.32 94.1012 133.592 94.3398Z" fill="white"/>
<path d="M143.625 97.569C141.787 100.289 141.324 102.166 142.059 103.153C142.954 104.441 144.088 106.207 144.919 107.543C144.168 106.223 144.567 104.25 146.309 101.689C151.341 94.2284 165.783 84.668 178.548 80.3093C186.919 77.446 192.495 77.5414 193.917 80.0548C192.064 76.9687 189.412 72.9441 187.367 69.9535C186.105 68.2196 181.248 69.1899 173.835 73.0555C162.189 79.1481 148.673 90.1084 143.625 97.569Z" fill="white"/>
<path d="M126.882 83.8885C124.933 86.7678 123.687 88.0086 123.16 87.754C124.31 88.3108 125.796 89.1221 126.93 89.7266L128.016 90.3788C128.16 90.4583 129.182 89.1062 131.163 86.1951C136.196 78.7345 145.478 63.9086 151.9 53.0438C155.798 46.4263 157.747 42.8312 157.524 42.7039L155.255 41.3518C152.923 40.0314 149.727 38.4089 147.331 37.184C148.178 37.5658 147.203 41.7017 144.376 48.9715C139.758 60.7908 131.93 76.4279 126.882 83.8726V83.8885Z" fill="white"/>
<path d="M86.6227 116.181L85.4405 113.858L84.5458 111.774C83.1879 108.291 76.9094 106.843 67.4676 108.466C53.7443 110.82 38.5353 118.79 33.5029 126.234C31.9373 128.557 31.5379 130.561 32.1449 132.152L34.4455 137.481L37.3211 143.128C36.5862 141.792 36.9697 139.804 38.6951 137.258C43.7275 129.798 58.2336 120.364 71.0941 116.165C76.8295 114.32 84.1784 112.808 86.6227 116.197V116.181Z" fill="white"/>
<path d="M103.381 133.504C102.167 132.725 100.602 131.611 99.4194 130.768L98.8123 130.291C98.4448 129.989 95.5213 132.916 90.5048 138.769C82.2773 148.362 71.5255 162.169 66.4771 169.63C64.5121 172.541 63.7133 174.052 63.9369 174.243L65.215 175.23C67.6274 177.011 70.9663 179.254 73.4586 180.924C73.5704 180.988 74.5769 179.62 76.5579 176.709C81.5903 169.248 90.9841 154.486 97.5342 143.717C101.528 137.163 103.541 133.6 103.365 133.488L103.381 133.504Z" fill="white"/>
<path d="M114.325 138.658C113.175 138.276 111.673 137.672 110.555 137.242L109.324 136.702C110.267 137.115 109.452 141.331 106.768 148.68C102.423 160.626 94.8183 176.359 89.7699 183.804C87.8369 186.667 86.5588 187.892 85.9677 187.637L88.5718 188.783C90.9841 189.769 94.2752 190.946 96.7195 191.837C97.694 192.155 99.1638 190.994 101.049 188.21C106.081 180.749 112.168 164.428 114.644 151.75C116.194 143.812 115.954 139.183 114.325 138.658Z" fill="white"/>
<path d="M125.268 140.806C124.342 140.742 123.112 140.599 122.185 140.503L120.444 140.217C122.984 140.662 124.629 145.673 124.565 154.279C124.47 167.562 120.3 184.376 115.251 191.837C113.478 194.462 111.817 195.575 110.443 195.337L114.485 195.989C116.721 196.291 119.725 196.514 121.977 196.737C123.591 196.832 125.316 195.718 126.962 193.269C131.994 185.808 134.582 168.819 132.745 155.297C131.499 146.214 128.575 141.012 125.268 140.837V140.806Z" fill="white"/>
<path d="M134.87 140.042C134.247 140.185 133.384 140.344 132.761 140.472L130.796 140.726C133.368 140.519 138.337 142.094 142.698 155.107C148.242 173.877 145.031 194.748 136.34 196.466L141.771 195.766C143.689 195.448 146.213 194.875 148.13 194.494C149.791 194.08 151.293 192.982 152.555 191.105C157.588 183.645 156.725 166.942 150.622 153.77C146.037 143.908 139.822 138.833 134.87 140.042Z" fill="white"/>
<path d="M141.995 137.083L140.893 137.751C140.398 138.022 139.711 138.34 139.199 138.595C141.388 137.64 149.344 135.683 159.856 150.637C170.081 166.56 171.199 184.806 162.268 189.674C164.138 188.831 166.55 187.542 168.387 186.619L172.797 183.963C173.755 183.327 174.618 182.499 175.321 181.449C180.353 173.989 176.423 158.59 166.534 147.026C158.035 137.099 147.89 133.25 142.011 137.083H141.995Z" fill="white"/>
<path d="M126.642 43.0857C126.259 56.3208 121.85 73.0873 116.817 80.5479C114.357 84.1589 112.919 84.0953 112.056 84.0635C113.063 84.2703 114.373 84.6044 115.363 84.8589L117.057 85.3679C118.063 85.6861 119.549 84.5407 121.418 81.7569C126.451 74.2963 132.426 57.9433 134.742 45.2014C136.196 37.2158 135.876 32.5549 134.183 32.03L130.476 30.9164C128.256 30.3119 125.236 29.6597 122.984 29.1348C126.419 30.2642 126.722 37.6453 126.642 43.1016V43.0857Z" fill="white"/>
<path d="M108.51 41.9403C112.44 55.4458 111.545 72.4351 106.513 79.8957C105.027 82.091 103.349 83.2204 101.608 83.3636C102.343 83.2999 103.333 83.284 104.068 83.2681L106.129 83.3158C108.398 83.284 109.724 81.7251 111.13 79.848C116.162 72.3874 118.638 55.3822 116.641 41.8449C115.236 32.8253 112.631 27.9576 108.893 27.369L103.733 27.2577C101.768 27.2577 99.1318 27.4486 97.1668 27.5281C101.305 27.1782 105.746 32.4276 108.51 41.9563V41.9403Z" fill="white"/>
<path d="M91.2078 46.0445C99.2756 58.5796 101.72 74.7735 96.6715 82.2182C95.665 83.7135 94.4189 84.7475 93.029 85.3361L94.5308 84.7634C95.1378 84.5566 95.9686 84.3339 96.5916 84.1589C98.2372 83.7294 99.7389 82.6318 100.985 80.7865C106.017 73.3259 105.043 56.6548 98.7803 43.5152C94.0675 33.6366 87.725 28.5939 82.7246 29.8665C80.7755 30.3597 78.2354 31.2028 76.3023 31.7754L71.1421 33.7321C76.7017 31.3936 84.7695 36.0227 91.2078 46.0286V46.0445Z" fill="white"/>
<path d="M77.3407 54.9209C88.7155 65.3403 93.8438 79.8162 88.7954 87.2609C88.396 87.8654 87.9327 88.3904 87.4215 88.8676L88.0925 88.279C88.5238 87.929 89.1309 87.4995 89.5782 87.1655C90.5048 86.5451 91.3356 85.7179 92.0225 84.6998C97.055 77.2392 93.029 61.9043 83.0122 50.4191C74.3692 40.5087 64.0967 36.7227 58.2016 40.6677C56.2845 41.9881 53.8402 43.897 52.003 45.3127L48.9995 47.9693C54.7987 42.5607 66.8765 45.3605 77.3407 54.9209Z" fill="white"/>
<path d="M68.0587 67.3924C78.5549 73.1509 88.0765 83.6976 84.1784 93.2262C84.4659 92.6854 84.8813 91.9695 85.2008 91.4605C85.2488 91.3969 85.2807 91.3332 85.3286 91.2696L85.4085 91.1423C85.4085 91.1423 85.5044 91.0151 85.5523 90.9355C90.5847 83.4749 84.3541 70.2558 71.6373 61.3953C59.0324 52.6143 44.7659 51.4212 39.6057 58.6433L38.5672 60.1386C37.1294 62.3974 35.388 65.4358 34.0461 67.9014C34.1419 67.7424 34.2378 67.5833 34.3496 67.4242C39.382 59.9636 54.4792 59.9477 68.0587 67.3924Z" fill="white"/>
<path d="M34.0461 67.9173C33.9183 68.1241 33.8064 68.3309 33.6946 68.5536C33.8064 68.3468 33.9183 68.1241 34.0461 67.9173Z" fill="white"/>
<path d="M63.6973 82.4568C75.8549 85.6542 83.2678 92.5263 82.5329 99.0325C82.6127 98.3962 82.7725 97.5372 82.8843 96.9009L83.0601 96.2009C84.9932 89.0903 77.6602 80.3093 65.0233 75.4416C50.5332 69.9853 32.5443 70.8125 28.7421 81.6774L28.0072 84.6203C27.496 87.0859 26.9847 90.3947 26.6173 92.8763C27.8634 84.0476 43.4079 77.605 63.6973 82.4568Z" fill="white"/>
<path d="M64.6079 99.0484C71.9409 99.0802 81.095 100.448 83.0121 106.748C82.8684 106.032 82.7246 105.077 82.6128 104.362L82.485 103.041C82.1175 97.5213 74.8804 92.7808 63.5376 91.4764C48.8717 89.7743 32.9118 94.4511 27.8634 101.896C26.7131 103.582 26.2339 105.284 26.3457 106.907L26.7611 111.202C27.0486 113.365 27.5918 116.213 27.9593 118.36C26.5214 110.184 43.1523 99.6688 64.6079 99.0643V99.0484Z" fill="white"/>
<path d="M82.6287 131.691C88.8913 126.807 92.8373 124.803 93.7479 125.757C92.6616 124.596 91.2877 122.973 90.2812 121.748L90.1853 121.621C88.9552 120.015 84.2103 121.112 76.9573 125.121C65.5026 131.452 52.1308 142.619 47.0824 150.08C45.2292 152.816 44.7659 154.677 45.4848 155.616L45.7085 155.918C47.8812 158.606 50.9326 162.074 53.2651 164.635C52.7059 164.047 53.297 162.344 55.2141 159.497C60.2465 152.036 72.532 139.597 82.6287 131.707V131.691Z" fill="white"/>
<path d="M178.053 136.177C167.205 128.764 153.162 124.946 146.229 133.138C145.717 133.822 145.702 133.854 144.599 135.015C150.35 129.384 162.7 132.009 173.42 141.506C184.97 151.734 190.242 166.083 185.21 173.543C184.842 174.084 184.443 174.561 183.996 175.007C186.903 172.144 186.983 172.032 191.616 166.226C195.323 161.279 194.907 148.759 178.053 136.192V136.177Z" fill="white"/>
<path d="M184.842 122.242C170.576 116.594 154.92 118.058 149.887 125.519C149.264 126.489 149.216 126.584 148.657 128.143C148.465 128.764 148.178 129.575 147.938 130.179L147.762 130.577C147.954 130.164 148.274 129.654 148.513 129.257C153.546 121.796 168.739 121.605 182.414 128.827C195.482 136.049 201.905 145.96 198.821 154.073L199.652 152.211C200.706 149.587 201.921 146.023 202.799 143.351C204.333 137.767 200.563 128.891 184.858 122.257L184.842 122.242Z" fill="white"/>
<path d="M205.483 118.137C205.355 115.99 203.614 108.784 186.52 106.255C171.854 104.425 155.878 108.975 150.83 116.435C149.376 118.726 149.344 119.903 149.312 121.383C149.344 122.098 149.328 123.069 149.328 123.785L149.264 124.66C149.392 123.291 149.871 121.923 150.766 120.619C155.798 113.158 171.758 110.041 186.408 113.62C198.47 116.578 205.883 123.18 205.308 129.575L205.531 126.314C205.611 123.864 205.531 120.587 205.483 118.137Z" fill="white"/>
<path d="M182.782 89.2812C168.994 91.4923 153.753 99.3347 148.705 106.795C146.612 109.945 147.059 111.599 147.347 112.697C147.635 113.461 147.954 114.495 148.21 115.258L148.625 116.817C148.162 114.32 149.12 112.713 150.047 111.154C155.079 103.693 170.8 97.3463 185.146 96.9645C192.367 96.8532 201.409 97.9985 203.422 104.107L202.24 99.637C201.633 97.569 200.643 94.8806 199.956 92.8445C198.901 90.2515 195.067 87.5313 182.782 89.2653V89.2812Z" fill="white"/>
<path d="M302.329 108.322C308.48 109.993 313.289 113.238 316.739 118.074C320.19 122.894 321.916 128.509 321.916 134.92C321.916 142.905 319.024 149.873 313.241 155.806C307.457 161.66 299.581 164.571 289.612 164.571H245.567V61.6814H287.647C296.69 61.6814 303.735 64.2425 308.767 69.3329C313.896 74.4393 316.452 80.4205 316.452 87.2926C316.452 91.9376 315.174 96.2008 312.602 100.098C310.03 103.995 306.611 106.732 302.329 108.306V108.322ZM285.267 76.3004H261.495V102.898H284.708C289.373 102.898 293.095 101.546 295.891 98.8573C298.687 96.169 300.077 92.9238 300.077 89.106C300.077 85.2882 298.719 82.4408 296.019 79.991C293.319 77.5253 289.724 76.3004 285.251 76.3004H285.267ZM261.495 149.952H286.801C292.296 149.952 296.722 148.377 300.093 145.212C303.447 142.062 305.125 138.197 305.125 133.647C305.125 129.098 303.463 124.978 300.156 121.812C296.849 118.662 292.264 117.071 286.385 117.071H261.495V149.952Z" fill="white"/>
<path d="M389.573 99.9709V89.5355H404.399V164.587H389.573V154.279C382.768 162.36 374.189 166.385 363.836 166.385C352.925 166.385 343.93 162.583 336.853 154.963C329.76 147.359 326.229 137.879 326.229 126.552C326.229 115.226 329.776 106.032 336.853 98.6983C343.93 91.3649 352.941 87.7061 363.836 87.7061C374.732 87.7061 382.768 91.7944 389.573 99.9549V99.9709ZM365.945 152.323C372.943 152.323 378.758 149.857 383.423 144.941C387.992 140.121 390.276 134.124 390.276 126.982C390.276 119.839 387.992 113.985 383.423 109.165C378.758 104.25 372.927 101.784 365.945 101.784C358.964 101.784 352.941 104.25 348.467 109.165C343.994 114.001 341.758 119.983 341.758 127.125C341.758 134.268 343.994 140.265 348.467 145.085C352.941 149.905 358.772 152.323 365.945 152.323Z" fill="white"/>
<path d="M476.275 99.1437V89.5355H491.1V156.92C491.1 168.978 487.378 178.586 479.917 185.744C472.456 192.887 462.583 196.466 450.266 196.466C437.948 196.466 426.542 192.887 416.573 185.744L423.283 173.909C431.574 179.843 440.489 182.817 449.994 182.817C457.918 182.817 464.213 180.606 468.878 176.2C473.543 171.793 475.875 166.051 475.875 159.004V153.579C469.261 161.008 460.826 164.715 450.569 164.715C439.562 164.715 430.52 161.056 423.442 153.722C416.349 146.389 412.818 137.194 412.818 126.155C412.818 115.115 416.493 105.968 423.858 98.7301C431.223 91.3967 440.361 87.738 451.272 87.738C461.241 87.738 469.597 91.5399 476.306 99.1596L476.275 99.1437ZM452.502 151.066C459.5 151.066 465.267 148.696 469.836 143.971C474.405 139.326 476.69 133.44 476.69 126.282C476.69 119.124 474.405 113.142 469.836 108.593C465.171 103.948 459.388 101.625 452.502 101.625C445.617 101.625 439.961 103.995 435.296 108.72C430.727 113.27 428.443 119.124 428.443 126.266C428.443 133.409 430.727 139.453 435.296 144.082C439.961 148.727 445.697 151.05 452.502 151.05V151.066Z" fill="white"/>
<path d="M574.99 125.598C574.99 128.016 574.798 130.466 574.43 132.979H515.559C516.678 139.008 519.362 143.796 523.595 147.328C527.829 150.859 533.5 152.625 540.593 152.625C544.875 152.625 549.38 151.877 554.093 150.398C558.806 148.918 562.832 146.962 566.187 144.544L572.625 155.822C563.215 162.79 552.352 166.258 540.05 166.258C526.806 166.258 516.773 162.408 509.92 154.709C503.066 147.009 499.647 137.719 499.647 126.855C499.647 115.99 503.194 106.207 510.271 98.8732C517.444 91.4444 526.726 87.738 538.101 87.738C549.476 87.738 557.863 91.1263 564.669 97.9029C571.571 104.775 575.021 114.017 575.021 125.614L574.99 125.598ZM538.085 100.941C532.302 100.941 527.381 102.723 523.339 106.302C519.282 109.881 516.693 114.59 515.575 120.428H559.477C558.822 114.574 556.521 109.865 552.559 106.302C548.597 102.723 543.773 100.941 538.085 100.941Z" fill="white"/>
<path d="M598.49 59.0408V164.587H583.105V59.0408H598.49Z" fill="white"/>
<path d="M686.076 164.535H614.16L630.912 58.781H640.028L624.678 155.968H687.401L686.076 164.535Z" fill="white"/>
<path d="M750.563 58.781L776.665 164.535H767.315L760.614 137.512H703.501L688.308 164.535H678.724L738.564 58.781H750.563ZM743.239 67.1915L708.254 129.18H758.588L743.239 67.1915Z" fill="white"/>
<path d="M861.955 131.905C861.955 121.781 855.8 114.072 841.541 114.072H800.323L793.623 156.124H834.84C849.722 156.124 861.955 148.259 861.955 131.905ZM807.725 67.0357L801.57 105.973H836.866C850.735 105.973 862.345 97.7183 862.345 83.7009C862.345 74.3559 856.735 67.0357 843.489 67.0357H807.725ZM783.182 164.535L799.934 58.781H844.502C860.319 58.781 871.928 66.1791 871.928 82.2212C871.928 93.0458 866.318 103.092 855.021 107.92C864.682 110.723 871.227 118.355 871.227 130.581C871.227 149.115 858.371 164.535 831.412 164.535H783.182Z" fill="white"/>
<path d="M923.637 118.121L906.261 111.736C893.171 106.907 884.679 100.444 884.679 88.9185C884.679 69.7613 900.573 57.2235 925.663 57.2235C935.558 57.2235 946.154 59.404 954.258 62.9862L951.687 71.3188C943.194 67.7366 932.987 65.634 924.572 65.634C906.028 65.634 894.34 74.278 894.34 87.5946C894.34 96.9395 902.677 100.132 911.248 103.325L927.688 109.399C942.804 115.006 948.414 122.404 948.414 132.995C948.414 153.476 931.974 166.092 906.106 166.092C895.587 166.092 883.432 163.366 873.537 158.85L876.108 149.583C885.458 154.567 897.223 157.526 907.274 157.526C926.909 157.526 939.298 148.57 939.298 134.397C939.298 127.311 934.857 122.249 923.637 118.121Z" fill="white"/>
</svg>
